<svg id="Layer_1" data-name="Layer 1" xmlns="http://www.w3.org/2000/svg" viewBox="0 0 641 499.88"><defs><style>.cls-1{fill:none;stroke:#000;stroke-miterlimit:10;stroke-width:2px;}.cls-2{font-size:48px;}.cls-2,.cls-3{font-family:Lato-Regular, Lato;}.cls-3{font-size:21px;}.cls-4{letter-spacing:-0.03em;}</style></defs><title>smart-doorbell</title><rect class="cls-1" x="487.11" y="110.45" width="152.89" height="388.43"/><text class="cls-2" transform="translate(540.82 319.61)">Pi</text><line class="cls-1" x1="296" y1="150.12" x2="549.16" y2="150.12"/><circle class="cls-1" cx="551.14" cy="150.12" r="2.79"/><text class="cls-3" transform="translate(497.84 143.25)">GPIO</text><line class="cls-1" x1="420.31" y1="209.51" x2="549.16" y2="209.51"/><circle class="cls-1" cx="551.14" cy="209.51" r="2.79"/><text class="cls-3" transform="translate(497.85 202.82)"><tspan class="cls-4">V</tspan><tspan x="13.73" y="0">CC 3.3V</tspan></text><rect class="cls-1" x="357.54" y="200.06" width="62.77" height="17.54"/><line class="cls-1" x1="296" y1="208.83" x2="357.54" y2="208.83"/><text class="cls-3" transform="translate(377.31 195.83)">1k</text><line class="cls-1" x1="296" y1="471.69" x2="549.14" y2="471.69"/><circle class="cls-1" cx="551.12" cy="471.69" r="2.79"/><text class="cls-3" transform="translate(494.15 463.51)">Ground GPIO</text><line class="cls-1" x1="296" y1="300.59" x2="296" y2="150.12"/><line class="cls-1" x1="296" y1="472.53" x2="296" y2="313.71"/><line class="cls-1" x1="277.51" y1="300.59" x2="314.49" y2="300.59"/><line class="cls-1" x1="277.51" y1="313.71" x2="314.49" y2="313.71"/><line class="cls-1" x1="42.86" y1="471.69" x2="296" y2="471.69"/><line class="cls-1" x1="213.54" y1="150.12" x2="296" y2="150.12"/><text class="cls-3" transform="translate(130.61 18.02)">P MOSFET</text><rect class="cls-1" x="130.61" y="28.29" width="87.23" height="76.92"/><rect class="cls-1" x="130.61" y="59.18" width="87.23" height="46.03"/><circle class="cls-1" cx="174.23" cy="43.89" r="10.25"/><text class="cls-3" transform="translate(139.08 96.6)">g</text><text class="cls-3" transform="translate(167.38 96.6)">d</text><text class="cls-3" transform="translate(200 96.6)">s</text><line class="cls-1" x1="174.23" y1="105.22" x2="174.23" y2="150.12"/><line class="cls-1" x1="173.25" y1="150.12" x2="193.17" y2="150.12"/><line class="cls-1" x1="203.08" y1="471.69" x2="203.08" y2="105.22"/><line class="cls-1" x1="42.86" y1="150.12" x2="145.49" y2="150.12"/><line class="cls-1" x1="144.61" y1="105.22" x2="144.61" y2="150.12"/><rect class="cls-1" x="7193.37" y="7164.22" width="62.77" height="17.54" transform="translate(7318.47 -6920.09) rotate(90)"/><text class="cls-3" transform="translate(159.05 310.53)">1k</text><line class="cls-1" x1="144.61" y1="273.28" x2="144.61" y2="150.12"/><line class="cls-1" x1="144.61" y1="471.69" x2="144.61" y2="336.05"/><line class="cls-1" y1="150.12" x2="27.87" y2="150.12"/><line class="cls-1" x1="13.94" y1="136.18" x2="13.94" y2="164.05"/><line class="cls-1" y1="471.69" x2="27.87" y2="471.69"/><circle class="cls-1" cx="85.37" cy="304.66" r="27.59"/><line class="cls-1" x1="85.37" y1="277.08" x2="85.37" y2="150.12"/><line class="cls-1" x1="85.37" y1="472.53" x2="85.37" y2="332.79"/><text class="cls-3" transform="translate(51.14 343.46) rotate(-90)">Doorbell</text><line class="cls-1" x1="65.66" y1="324.37" x2="104.87" y2="285.16"/><line class="cls-1" x1="65.66" y1="285.16" x2="104.87" y2="324.37"/></svg>